nColumns=19
nRows=134
DataType=double
version=3
OpenSimVersion=4.1
endheader
time	ground_force_calcn_r_vx	ground_force_calcn_r_vy	ground_force_calcn_r_vz	ground_force_calcn_r_px	ground_force_calcn_r_py	ground_force_calcn_r_pz	ground_force_calcn_r_mx	ground_force_calcn_r_my	ground_force_calcn_r_mz	ground_force_calcn_l_vx	ground_force_calcn_l_vy	ground_force_calcn_l_vz	ground_force_calcn_l_px	ground_force_calcn_l_py	ground_force_calcn_l_pz	ground_force_calcn_l_mx	ground_force_calcn_l_my	ground_force_calcn_l_mz
1.9	0	0	0	0	0	0	0	0	0	-155.79	1004.17	40.5201	1.05008	0	-0.363539	0.454471	-2.92936	-0.118205
1.91	0	0	0	0	0	0	0	0	0	-155.777	1299	19.1227	1.02437	0	-0.360125	0.110425	-0.920823	-0.0135555
1.92	0	0	0	0	0	0	0	0	0	-178.678	1432.87	-9.99123	0.996117	0	-0.359354	-0.196215	1.5735	-0.0109718
1.93	0	0	0	0	0	0	0	0	0	-186.242	1508.22	-22.8427	0.961767	0	-0.35772	-0.412256	3.33853	-0.0505633
1.94	0	0	0	0	0	0	0	0	0	-160.218	1591.96	-17.9226	0.92198	0	-0.356873	-0.372094	3.69721	-0.0416238
1.95	0	0	0	0	0	0	0	0	0	-110.343	1664.71	-7.2788	0.881247	0	-0.357389	-0.183093	2.76226	-0.0120777
1.96	0	0	0	0	0	0	0	0	0	-51.294	1696.7	0.421747	0.841968	0	-0.357351	-0.0395115	1.30696	0.000324869
1.97	0	0	0	0	0	0	0	0	0	12.7084	1673.25	-0.168863	0.802728	0	-0.356443	0.00223146	0.293806	-2.96506e-05
1.98	0	0	0	0	0	0	0	0	0	82.2244	1588.7	-10.3755	0.761311	0	-0.355104	0.0180935	0.349595	-0.00228312
1.99	0	0	0	0	0	0	0	0	0	157.195	1443.41	-25.259	0.715826	0	-0.353163	0.162096	1.48841	-0.0260465
2	0	0	0	0	0	0	0	0	0	221.889	1244.41	-38.4738	0.667065	0	-0.350775	0.564657	3.16674	-0.0979071
2.01	0	0	0	0	0	0	0	0	0	254.095	1007.13	-46.543	0.620889	0	-0.348224	1.16555	4.61978	-0.213495
2.02	0	0	0	0	0	0	0	0	0	245.365	750.004	-48.1898	0.582357	0	-0.34561	1.72239	5.26483	-0.33828
2.03	0	0	0	0	0	0	0	0	0	201.819	498.43	-43.7367	0.551786	0	-0.34277	1.98987	4.91437	-0.431231
2.04	0	0	0	0	0	0	0	0	0	138.439	286.363	-35.2977	0.526366	0	-0.339714	1.83187	3.78926	-0.467072
2.05	0	0	0	0	0	0	0	0	0	75.9159	138.161	-24.927	0.496157	0	-0.337751	1.29108	2.34966	-0.423924
2.06	0	0	0	0	0	0	0	0	0	31.6714	55.2619	-13.8912	0.460779	0	-0.333548	0.589121	1.02793	-0.258391
2.07	0	0	0	0	0	0	0	0	0	8.35702	19.8707	-4.86844	0.536518	0	-0.303525	0.00195238	0.00464222	-0.00113737
2.08	0	0	0	0	0	0	0	0	0	0	0	0	0	0	0	0	0	0
2.09	0	0	0	0	0	0	0	0	0	0	0	0	0	0	0	0	0	0
2.1	0	0	0	0	0	0	0	0	0	0	0	0	0	0	0	0	0	0
2.11	0	0	0	0	0	0	0	0	0	0	0	0	0	0	0	0	0	0
2.12	0	0	0	0	0	0	0	0	0	0	0	0	0	0	0	0	0	0
2.13	0	0	0	0	0	0	0	0	0	0	0	0	0	0	0	0	0	0
2.14	0	0	0	0	0	0	0	0	0	0	0	0	0	0	0	0	0	0
2.15	0	0	0	0	0	0	0	0	0	0	0	0	0	0	0	0	0	0
2.16	-4.8925	13.0618	-5.22501	1.27751	0	-0.350844	-0.939875	2.50923	-1.00375	0	0	0	0	0	0	0	0	0
2.17	-18.9003	53.9982	-13.4262	1.1249	0	-0.348882	-1.52233	4.34929	-1.08142	0	0	0	0	0	0	0	0	0
2.18	-59.6473	194.1	-23.4064	1.10947	0	-0.337218	-1.68949	5.4978	-0.662976	0	0	0	0	0	0	0	0	0
2.19	-120.839	498.002	-26.9991	1.10388	0	-0.33665	-1.23788	5.10156	-0.27658	0	0	0	0	0	0	0	0	0
2.2	-158.19	903.669	-12.5415	1.08775	0	-0.339147	-0.512862	2.92975	-0.0406605	0	0	0	0	0	0	0	0	0
2.21	-174.066	1226.86	17.1385	1.06385	0	-0.341457	0.0499162	-0.351821	-0.00491472	0	0	0	0	0	0	0	0	0
2.22	-204.505	1376.97	40.6169	1.03565	0	-0.343817	0.498808	-3.35857	-0.0990686	0	0	0	0	0	0	0	0	0
2.23	-226.272	1450.75	45.7353	1.0022	0	-0.345357	0.766444	-4.91409	-0.154918	0	0	0	0	0	0	0	0	0
2.24	-213.789	1549.55	39.629	0.96535	0	-0.343847	0.632673	-4.58563	-0.117276	0	0	0	0	0	0	0	0	0
2.25	-169.711	1657.96	29.3582	0.928533	0	-0.341785	0.269977	-2.63747	-0.046703	0	0	0	0	0	0	0	0	0
2.26	-110.504	1726.84	19.4322	0.892897	0	-0.34045	-0.00722134	0.112848	0.00126987	0	0	0	0	0	0	0	0	0
2.27	-51.6067	1739.3	14.648	0.858612	0	-0.338432	-0.0784039	2.64244	0.0222541	0	0	0	0	0	0	0	0	0
2.28	4.44681	1693.75	14.0374	0.824279	0	-0.336661	0.0109274	4.16213	0.0344947	0	0	0	0	0	0	0	0	0
2.29	57.3885	1593.98	16.392	0.789399	0	-0.33615	0.156955	4.35948	0.0448315	0	0	0	0	0	0	0	0	0
2.3	103.556	1447.24	24.3063	0.755583	0	-0.335762	0.245589	3.43221	0.0576436	0	0	0	0	0	0	0	0	0
2.31	141.976	1251.18	35.5165	0.721986	0	-0.335372	0.222676	1.96237	0.0557045	0	0	0	0	0	0	0	0	0
2.32	170.375	1002.73	43.2084	0.683848	0	-0.336367	0.111258	0.654801	0.028216	0	0	0	0	0	0	0	0	0
2.33	179.586	725.739	44.9736	0.638169	0	-0.338136	0.00836752	0.0338146	0.00209547	0	0	0	0	0	0	0	0	0
2.34	157.573	465.762	41.6905	0.589487	0	-0.338168	0.0762518	0.225389	0.0201747	0	0	0	0	0	0	0	0	0
2.35	110.908	259.193	32.985	0.545175	0	-0.335119	0.405783	0.948316	0.120683	0	0	0	0	0	0	0	0	0
2.36	61.2933	120.541	20.5543	0.51692	0	-0.32831	0.884955	1.74037	0.296763	0	0	0	0	0	0	0	0	0
2.37	23.8139	45.6094	10.2417	0.56256	0	-0.302164	1.20699	2.31167	0.519092	0	0	0	0	0	0	0	0	0
2.38	5.2963	15.5002	5.38169	0.825444	0	-0.204669	0.897102	2.62547	0.911566	0	0	0	0	0	0	0	0	0
2.39	0	0	0	0	0	0	0	0	0	0	0	0	0	0	0	0	0	0
2.4	0	0	0	0	0	0	0	0	0	0	0	0	0	0	0	0	0	0
2.41	0	0	0	0	0	0	0	0	0	0	0	0	0	0	0	0	0	0
2.42	0	0	0	0	0	0	0	0	0	0	0	0	0	0	0	0	0	0
2.43	0	0	0	0	0	0	0	0	0	0	0	0	0	0	0	0	0	0
2.44	0	0	0	0	0	0	0	0	0	0	0	0	0	0	0	0	0	0
2.45	0	0	0	0	0	0	0	0	0	0	0	0	0	0	0	0	0	0
2.46	0	0	0	0	0	0	0	0	0	0	0	0	0	0	0	0	0	0
2.47	0	0	0	0	0	0	0	0	0	0	0	0	0	0	0	0	0	0
2.48	0	0	0	0	0	0	0	0	0	0	0	0	0	0	0	0	0	0
2.49	0	0	0	0	0	0	0	0	0	0	0	0	0	0	0	0	0	0
2.5	0	0	0	0	0	0	0	0	0	-14.1647	32.4475	2.97375	1.12898	0	-0.379578	-0.645466	1.47859	0.13551
2.51	0	0	0	0	0	0	0	0	0	-46.7376	118.412	7.85527	1.07471	0	-0.388651	-0.340983	0.8639	0.0573097
2.52	0	0	0	0	0	0	0	0	0	-108.296	329.839	20.6661	1.05981	0	-0.379851	-0.0719424	0.219116	0.0137287
2.53	0	0	0	0	0	0	0	0	0	-152.458	673.32	36.3625	1.04151	0	-0.369298	-0.0221469	0.0978101	0.0052822
2.54	0	0	0	0	0	0	0	0	0	-147.18	1056.48	39.9782	1.01338	0	-0.362387	-0.132914	0.954072	0.0361031
2.55	0	0	0	0	0	0	0	0	0	-152.454	1341.77	24.8186	0.982299	0	-0.359703	-0.299877	2.63925	0.048818
2.56	0	0	0	0	0	0	0	0	0	-173.484	1490.76	4.21265	0.949094	0	-0.358725	-0.509462	4.37784	0.0123711
2.57	0	0	0	0	0	0	0	0	0	-168.178	1584.39	-4.20184	0.911747	0	-0.35796	-0.56234	5.29775	-0.0140498
2.58	0	0	0	0	0	0	0	0	0	-132.472	1671.91	2.81705	0.872792	0	-0.357622	-0.391499	4.94103	0.0083253
2.59	0	0	0	0	0	0	0	0	0	-79.4184	1732.04	15.231	0.8349	0	-0.357718	-0.161733	3.52724	0.0310174
2.6	0	0	0	0	0	0	0	0	0	-18.2023	1738.66	22.0268	0.797604	0	-0.357757	-0.0191698	1.83107	0.0231975
2.61	0	0	0	0	0	0	0	0	0	47.0827	1685.01	18.8363	0.759572	0	-0.356903	0.0201555	0.72133	0.00806358
2.62	0	0	0	0	0	0	0	0	0	116.91	1568.24	6.74538	0.718692	0	-0.355078	0.0528871	0.709428	0.00305143
2.63	0	0	0	0	0	0	0	0	0	188.539	1384.03	-10.142	0.672806	0	-0.352927	0.235857	1.73139	-0.0126873
2.64	0	0	0	0	0	0	0	0	0	242.98	1141.3	-25.801	0.624497	0	-0.350513	0.684082	3.21319	-0.0726395
2.65	0	0	0	0	0	0	0	0	0	257.816	866.308	-35.726	0.580763	0	-0.34741	1.30868	4.39741	-0.181346
2.66	0	0	0	0	0	0	0	0	0	227.181	591.344	-39.1729	0.545589	0	-0.343788	1.82292	4.74501	-0.314328
2.67	0	0	0	0	0	0	0	0	0	165.261	351.608	-37.0881	0.517226	0	-0.340114	1.94348	4.13492	-0.436158
2.68	0	0	0	0	0	0	0	0	0	96.4234	176.525	-30.0887	0.490933	0	-0.33731	1.5531	2.84331	-0.484641
2.69	0	0	0	0	0	0	0	0	0	42.8201	73.3294	-19.4767	0.481921	0	-0.333903	0.789229	1.35155	-0.35898
2.7	0	0	0	0	0	0	0	0	0	13.4155	26.0503	-8.77669	0.576281	0	-0.320912	0.0144449	0.0280492	-0.00945016
2.71	0	0	0	0	0	0	0	0	0	0	0	0	0	0	0	0	0	0
2.72	0	0	0	0	0	0	0	0	0	0	0	0	0	0	0	0	0	0
2.73	0	0	0	0	0	0	0	0	0	0	0	0	0	0	0	0	0	0
2.74	0	0	0	0	0	0	0	0	0	0	0	0	0	0	0	0	0	0
2.75	0	0	0	0	0	0	0	0	0	0	0	0	0	0	0	0	0	0
2.76	0	0	0	0	0	0	0	0	0	0	0	0	0	0	0	0	0	0
2.77	0	0	0	0	0	0	0	0	0	0	0	0	0	0	0	0	0	0
2.78	0	0	0	0	0	0	0	0	0	0	0	0	0	0	0	0	0	0
2.79	0	0	0	0	0	0	0	0	0	0	0	0	0	0	0	0	0	0
2.8	-11.7926	33.3244	-9.4207	1.09796	0	-0.273214	-0.334949	0.946522	-0.267579	0	0	0	0	0	0	0	0	0
2.81	-42.9525	132.237	-22.0354	1.09557	0	-0.274238	-0.509305	1.56799	-0.261283	0	0	0	0	0	0	0	0	0
2.82	-98.6093	372.638	-37.5939	1.09159	0	-0.274357	-0.484772	1.83192	-0.184815	0	0	0	0	0	0	0	0	0
2.83	-142.556	731.518	-47.5538	1.07655	0	-0.276525	-0.259137	1.32974	-0.0864426	0	0	0	0	0	0	0	0	0
2.84	-161.77	1052.49	-44.4033	1.05286	0	-0.278634	0.000958875	-0.00623851	0.000263196	0	0	0	0	0	0	0	0	0
2.85	-203.431	1223.63	-33.3282	1.02429	0	-0.279993	0.279582	-1.68167	0.0458039	0	0	0	0	0	0	0	0	0
2.86	-242.731	1308.52	-26.9406	0.989317	0	-0.28119	0.547477	-2.95135	0.0607644	0	0	0	0	0	0	0	0	0
2.87	-238.652	1409.1	-28.4716	0.948681	0	-0.281758	0.557695	-3.29287	0.0665342	0	0	0	0	0	0	0	0	0
2.88	-196.443	1531.65	-32.7596	0.906686	0	-0.280946	0.323855	-2.52507	0.0540073	0	0	0	0	0	0	0	0	0
2.89	-131.41	1622.56	-37.6163	0.863902	0	-0.279838	0.0720362	-0.889449	0.0206204	0	0	0	0	0	0	0	0	0
2.9	-52.1915	1647.88	-41.6211	0.818662	0	-0.279189	-0.0318549	1.00578	-0.0254033	0	0	0	0	0	0	0	0	0
2.91	33.854	1613.13	-40.0853	0.771731	0	-0.278526	0.0518129	2.46887	-0.0613498	0	0	0	0	0	0	0	0	0
2.92	119.326	1530.01	-31.3726	0.725488	0	-0.277895	0.236463	3.03195	-0.0621694	0	0	0	0	0	0	0	0	0
2.93	194.919	1397.02	-18.5574	0.681006	0	-0.278018	0.367623	2.63482	-0.035	0	0	0	0	0	0	0	0	0
2.94	250.17	1214.18	-4.19755	0.638838	0	-0.278638	0.331249	1.6077	-0.00555796	0	0	0	0	0	0	0	0	0
2.95	275.486	987.785	9.43777	0.598174	0	-0.279223	0.134776	0.483255	0.00461725	0	0	0	0	0	0	0	0	0
2.96	266.778	734.05	19.066	0.55688	0	-0.279991	-0.0949935	-0.261378	-0.00678897	0	0	0	0	0	0	0	0	0
2.97	223.845	485.982	23.1981	0.51722	0	-0.280513	-0.191435	-0.415618	-0.0198393	0	0	0	0	0	0	0	0	0
2.98	157.488	280.664	22.5143	0.487247	0	-0.278632	-0.0567004	-0.101048	-0.00810584	0	0	0	0	0	0	0	0	0
2.99	89.7297	137.787	17.6362	0.476366	0	-0.271396	0.243497	0.37391	0.047859	0	0	0	0	0	0	0	0	0
3	38.5462	54.9376	10.2544	0.507028	0	-0.254781	0.518528	0.739026	0.137943	0	0	0	0	0	0	0	0	0
3.01	12.0711	17.7723	4.41093	0.670604	0	-0.208855	0.596195	0.877779	0.217857	0	0	0	0	0	0	0	0	0
3.02	0	0	0	0	0	0	0	0	0	0	0	0	0	0	0	0	0	0
3.03	0	0	0	0	0	0	0	0	0	0	0	0	0	0	0	0	0	0
3.04	0	0	0	0	0	0	0	0	0	0	0	0	0	0	0	0	0	0
3.05	0	0	0	0	0	0	0	0	0	0	0	0	0	0	0	0	0	0
3.06	0	0	0	0	0	0	0	0	0	0	0	0	0	0	0	0	0	0
3.07	0	0	0	0	0	0	0	0	0	0	0	0	0	0	0	0	0	0
3.08	0	0	0	0	0	0	0	0	0	0	0	0	0	0	0	0	0	0
3.09	0	0	0	0	0	0	0	0	0	-6.14314	12.9168	0.986106	0.853913	0	-0.365271	-0.616929	1.29718	0.0990303
3.1	0	0	0	0	0	0	0	0	0	-25.4399	52.8733	4.89936	1.03009	0	-0.380273	-0.33251	0.691075	0.0640364
3.11	0	0	0	0	0	0	0	0	0	-71.991	182.468	15.5788	1.06914	0	-0.384721	0.086727	-0.219817	-0.0187676
3.12	0	0	0	0	0	0	0	0	0	-130.502	458.71	33.6356	1.06191	0	-0.376819	0.290906	-1.02253	-0.0749782
3.13	0	0	0	0	0	0	0	0	0	-148.131	833.804	47.09	1.03875	0	-0.366887	0.185023	-1.04146	-0.0588178
3.14	0	0	0	0	0	0	0	0	0	-140.786	1166.84	39.583	1.00955	0	-0.362158	-0.000871564	0.00722353	0.000245046
3.15	0	0	0	0	0	0	0	0	0	-161.437	1372.11	18.2043	0.979435	0	-0.361736	-0.186389	1.58418	0.0210179
3.16	0	0	0	0	0	0	0	0	0	-176.106	1496.72	6.82243	0.946156	0	-0.360772	-0.32303	2.74543	0.0125143
3.17	0	0	0	0	0	0	0	0	0	-152.84	1603.56	11.8194	0.907955	0	-0.360117	-0.268535	2.81739	0.0207663
3.18	0	0	0	0	0	0	0	0	0	-101.494	1689.05	23.6482	0.867434	0	-0.361094	-0.105995	1.76396	0.0246971
3.19	0	0	0	0	0	0	0	0	0	-43.6389	1726.75	34.1926	0.827617	0	-0.361845	-0.00515241	0.203876	0.00403709
3.2	0	0	0	0	0	0	0	0	0	17.8731	1703.39	36.8032	0.78797	0	-0.361777	-0.00992075	-0.945494	-0.0204282
3.21	0	0	0	0	0	0	0	0	0	87.5453	1617.83	28.0609	0.746422	0	-0.361134	-0.0525539	-0.971193	-0.0168451
3.22	0	0	0	0	0	0	0	0	0	164.171	1474.66	11.1985	0.702024	0	-0.359527	0.0319777	0.287237	0.00218128
3.23	0	0	0	0	0	0	0	0	0	230.496	1280.31	-8.03231	0.656086	0	-0.357111	0.426652	2.36987	-0.0148679
